Coordinates
version=1
nRows=12
nColumns=42
inDegrees=yes

Units are S.I. units (second, meters, Newtons, ...)
If the header above contains a line with 'inDegrees', this indicates whether rotational values are in degrees (yes) or radians (no).

endheader
time	pelvis_tilt	pelvis_list	pelvis_rotation	pelvis_tx	pelvis_ty	pelvis_tz	hip_flexion_r	hip_adduction_r	hip_rotation_r	knee_angle_r	knee_adduction_r	knee_angle_r_beta	ankle_angle_r	subtalar_angle_r	mtp_angle_r	hip_flexion_l	hip_adduction_l	hip_rotation_l	knee_angle_l	knee_adduction_l	knee_angle_l_beta	ankle_angle_l	subtalar_angle_l	mtp_angle_l	lumbar_extension	lumbar_bending	lumbar_rotation	arm_flex_r	arm_add_r	arm_rot_r	elbow_flex_r	pro_sup_r	wrist_flex_r	wrist_dev_r	arm_flex_l	arm_add_l	arm_rot_l	elbow_flex_l	pro_sup_l	wrist_flex_l	wrist_dev_l
      1.46000000	      1.80012540	     -5.28607928	      4.19997259	     -0.64413216	      0.95641144	      0.30787296	     13.72224227	      1.63793726	    -11.29507559	      6.99750130	      5.86661916	      0.12212944	     -1.99533272	      8.08160119	     -7.55625563	    -18.07718279	     -6.55468928	     -6.99603082	     16.33086683	      0.37865661	      0.28502740	     10.87718262	     18.12421686	     -7.55625563	     -7.68482515	     10.57667637	     -7.94407875	    -10.80257633	    -10.48529014	     -0.70434600	     22.56842759	     90.00000001	      0.00000000	      0.00000000	      5.50626608	    -18.82998436	     19.70525504	     45.48893306	     90.00000001	      0.00000000	      0.00000000
      1.47000000	      1.51019538	     -5.61650232	      4.00315695	     -0.63272010	      0.95828344	      0.30902869	     13.05346702	      2.18562596	     -9.44709162	      6.29662024	      6.03099060	      0.10989675	     -2.56820452	      5.60000989	     -7.55211855	    -16.83493991	     -7.30265379	     -7.63735457	     19.08522864	      0.48407522	      0.33310008	      9.05512693	     18.49708561	     -7.55211855	     -7.35055086	     11.02088940	     -7.52520392	    -10.55053204	    -10.44039141	     -1.65297182	     22.20931870	     90.00000001	      0.00000000	      0.00000000	      4.76311659	    -18.35876045	     19.27760578	     45.22535892	     90.00000001	      0.00000000	      0.00000000
      1.48000000	      1.51713997	     -5.63170346	      3.85671946	     -0.62127769	      0.96054006	      0.30989042	     12.30257744	      2.24514677	     -8.95031140	      6.31756318	      6.25492748	      0.11026228	     -2.15420862	      5.77061456	     -7.55113009	    -15.94338991	     -7.60461824	     -7.54424485	     21.62851320	      0.52214699	      0.37748877	      6.47941243	     17.71034900	     -7.55113009	     -7.35422733	     11.14144974	     -7.23032041	    -10.33593005	    -10.53960892	     -1.70982237	     22.21308412	     90.00000001	      0.00000000	      0.00000000	      4.00686398	    -18.11731222	     19.36689169	     44.99915931	     90.00000001	      0.00000000	      0.00000000
      1.49000000	      1.52478200	     -5.56930724	      3.67259339	     -0.61005951	      0.96277707	      0.31088887	     11.52715591	      2.28381227	     -8.54087211	      6.26266689	      6.38485342	      0.10930416	     -1.71630162	      5.96940335	     -7.55028910	    -14.83467140	     -7.87600379	     -7.34521617	     24.46075996	      0.67071761	      0.42692080	      3.76507454	     16.84955294	     -7.55028910	     -7.39667912	     11.14098722	     -6.82973731	    -10.14520262	    -10.60719871	     -1.76863139	     22.25717126	     90.00000001	      0.00000000	      0.00000000	      3.31985494	    -17.86341777	     19.37446209	     44.78249977	     90.00000001	      0.00000000	      0.00000000
      1.50000000	      1.34043870	     -5.60758298	      3.48172261	     -0.59889928	      0.96466354	      0.31182926	     10.86786218	      2.45384009	     -8.13902671	      5.99257778	      6.45281465	      0.10459021	     -1.35393205	      6.12546113	     -7.54920832	    -13.25208079	     -8.21699617	     -7.31105043	     27.63363978	      0.63546409	      0.48229800	      0.81457310	     15.51144879	     -7.54920832	     -7.20240161	     11.24768980	     -6.45763780	     -9.92020962	    -10.71831677	     -1.88924998	     22.24960240	     90.00000001	      0.00000000	      0.00000000	      2.56187487	    -17.56966837	     19.34893295	     44.55244776	     90.00000001	      0.00000000	      0.00000000
      1.51000000	      1.03457806	     -5.66036418	      3.24525653	     -0.58821730	      0.96623815	      0.31312840	     10.38338709	      2.72168135	     -7.65197719	      5.70787616	      6.42351981	      0.09962123	     -1.17145760	      5.99047877	     -7.54744239	    -11.37976922	     -8.64633929	     -6.98399356	     30.96755180	      0.84423349	      0.54048574	     -1.88699908	     13.75665220	     -7.54744239	     -6.93865078	     11.31577631	     -6.00991707	     -9.65845676	    -10.75974119	     -2.10798511	     22.29645420	     90.00000001	      0.00000000	      0.00000000	      1.86336835	    -17.28602998	     19.19344386	     44.28961455	     90.00000001	      0.00000000	      0.00000000
      1.52000000	      1.05550724	     -5.57504437	      3.07694923	     -0.57748907	      0.96793702	      0.31410619	      9.47409510	      2.78046381	     -7.40337853	      5.35056502	      6.48898409	      0.09338498	     -0.76645927	      6.24987744	     -7.54622634	     -9.81431000	     -8.85246106	     -6.74020958	     34.15756158	      0.83367443	      0.59616191	     -4.46576521	     12.14591409	     -7.54622634	     -7.03556478	     11.25971237	     -5.60328998	     -9.41632707	    -10.86201950	     -2.19357501	     22.53845672	     90.00000001	      0.00000000	      0.00000000	      1.20777060	    -17.06158883	     19.12867385	     44.09255920	     90.00000001	      0.00000000	      0.00000000
      1.53000000	      1.15721870	     -5.45684048	      2.94338660	     -0.56698462	      0.96945951	      0.31501291	      8.48003688	      2.82187276	     -7.29910895	      4.98309358	      6.49543561	      0.08697139	     -0.26356284	      6.64385293	     -7.54533310	     -8.23187953	     -8.97616291	     -6.55905605	     37.34564359	      0.65205904	      0.65180444	     -6.47929896	     10.43766298	     -7.54533310	     -7.24567872	     11.15729615	     -5.19956076	     -9.15693147	    -10.98630896	     -2.20881714	     22.86208038	     90.00000001	      0.00000000	      0.00000000	      0.61056714	    -16.86363116	     19.05684369	     43.88900852	     90.00000001	      0.00000000	      0.00000000
      1.54000000	      1.13592600	     -5.40215618	      2.78653179	     -0.55672776	      0.97062741	      0.31601012	      7.67461198	      2.93604861	     -7.22953451	      4.66857044	      6.46299394	      0.08148193	      0.15716092	      7.11720449	     -7.54438726	     -6.45419732	     -9.18729882	     -6.37484349	     40.48506807	      0.54448162	      0.70659774	     -7.95076045	      8.30945087	     -7.54438726	     -7.33134667	     11.10017952	     -4.79187564	     -8.87046784	    -11.14328002	     -2.15598568	     23.22990992	     90.00000001	      0.00000000	      0.00000000	      0.01400486	    -16.65259123	     18.94760073	     43.68299211	     90.00000001	      0.00000000	      0.00000000
      1.55000000	      1.09999733	     -5.34690183	      2.60381585	     -0.54679234	      0.97160367	      0.31717115	      6.95369405	      3.04105163	     -7.23524039	      4.45504982	      6.45252221	      0.07775529	      0.57798759	      7.61891466	     -7.54334006	     -4.63748424	     -9.39855330	     -6.17176845	     43.48108562	      0.47880289	      0.75888811	     -8.79453974	      6.01153048	     -7.54334006	     -7.44422531	     11.00446984	     -4.34765460	     -8.55560129	    -11.28733525	     -1.99471883	     23.64455817	     90.00000001	      0.00000000	      0.00000000	     -0.52850458	    -16.46303038	     18.78420686	     43.43209356	     90.00000001	      0.00000000	      0.00000000
      1.56000000	      1.26385758	     -5.19306971	      2.47422972	     -0.53691964	      0.97263555	      0.31819685	      6.03299265	      3.00733876	     -7.23786025	      4.29448788	      6.48080412	      0.07495295	      1.10116434	      8.12246126	     -7.54250766	     -3.04616770	     -9.44811658	     -6.25426134	     46.22062540	      0.10565519	      0.80670210	     -8.90943960	      4.12147930	     -7.54250766	     -7.76728697	     10.79688343	     -3.96162324	     -8.18156874	    -11.41384748	     -1.81093731	     24.09417341	     90.00000001	      0.00000000	      0.00000000	     -0.99406878	    -16.29332837	     18.66111182	     43.13804292	     90.00000001	      0.00000000	      0.00000000
      1.57000000	      1.29606894	     -5.08106339	      2.31464386	     -0.52731152	      0.97344026	      0.31918657	      5.32680051	      3.01155212	     -7.19518750	      4.22951475	      6.46727782	      0.07381896	      1.62626931	      8.68334245	     -7.54152298	     -1.29212669	     -9.55016605	     -6.42353226	     48.78913508	     -0.25670802	      0.85153105	     -8.75158000	      2.11610427	     -7.54152298	     -7.97637732	     10.62061049	     -3.56972837	     -7.79758858	    -11.62942216	     -1.50271385	     24.59914308	     90.00000001	      0.00000000	      0.00000000	     -1.45582368	    -16.11179378	     18.51373856	     42.78913913	     90.00000001	      0.00000000	      0.00000000
